<?xml version="1.0" encoding="UTF-8"?>
<svg version="1.1" xmlns="http://www.w3.org/2000/svg" width="200" height="200">
<path d="M0 0 C66 0 132 0 200 0 C200 66 200 132 200 200 C134 200 68 200 0 200 C0 134 0 68 0 0 Z " fill="#FEFDFE" transform="translate(0,0)"/>
<path d="M0 0 C0.87092789 -0.00945648 1.74185577 -0.01891296 2.63917542 -0.02865601 C4.03776039 -0.01954697 4.03776039 -0.01954697 5.46459961 -0.01025391 C6.42845078 -0.01312408 7.39230194 -0.01599426 8.38536072 -0.01895142 C10.42032459 -0.02099074 12.45530812 -0.01547012 14.49023438 -0.00292969 C17.60908674 0.01314311 20.72664661 -0.00279207 23.84545898 -0.02197266 C25.82267539 -0.01999054 27.79989099 -0.01614753 29.77709961 -0.01025391 C30.71151382 -0.0163266 31.64592804 -0.02239929 32.60865784 -0.02865601 C33.47643356 -0.01919952 34.34420929 -0.00974304 35.23828125 0 C36.00120987 0.00238678 36.76413849 0.00477356 37.55018616 0.00723267 C40.15818175 0.50293668 41.02578034 1.23029365 42.55444336 3.38818359 C42.91520691 5.5332489 42.91520691 5.5332489 42.89501953 8.04321289 C42.89479294 8.98396164 42.89456635 9.92471039 42.89433289 10.89396667 C42.87884903 11.90655045 42.86336517 12.91913422 42.84741211 13.96240234 C42.84316727 15.00137161 42.83892242 16.04034088 42.83454895 17.11079407 C42.81774185 20.43268635 42.78008532 23.75397434 42.74194336 27.07568359 C42.72689918 29.32632588 42.71321031 31.57697767 42.70092773 33.82763672 C42.66783172 39.34802557 42.61761205 44.86806141 42.55444336 50.38818359 C43.40555695 50.37819084 43.40555695 50.37819084 44.27386475 50.36799622 C50.17853124 50.30163464 56.08309182 50.25637965 61.98803711 50.22338867 C64.19185692 50.20830068 66.39564671 50.18782783 68.59936523 50.16186523 C71.76675833 50.12548302 74.93375447 50.10845727 78.10131836 50.09521484 C79.57964142 50.07198906 79.57964142 50.07198906 81.08782959 50.04829407 C82.00848206 50.04806747 82.92913452 50.04784088 83.87768555 50.04760742 C85.09013947 50.03761467 85.09013947 50.03761467 86.3270874 50.02742004 C89.18658319 50.49057091 90.52352917 51.33171614 92.55444336 53.38818359 C93.0556488 55.47509766 93.0556488 55.47509766 93.05615234 57.90380859 C93.06553329 58.81485352 93.07491425 59.72589844 93.08457947 60.66455078 C93.0677285 62.13649902 93.0677285 62.13649902 93.05053711 63.63818359 C93.05199234 64.6478418 93.05344757 65.6575 93.0549469 66.69775391 C93.05328657 68.8328744 93.04171042 70.96800669 93.02099609 73.10302734 C92.99205395 76.37567862 93.00038213 79.64670959 93.01342773 82.91943359 C93.00719014 84.99235815 92.99879903 87.06527759 92.98803711 89.13818359 C92.99097275 90.11948242 92.99390839 91.10078125 92.99693298 92.11181641 C92.98424881 93.02286133 92.97156464 93.93390625 92.95849609 94.87255859 C92.95309311 95.6740332 92.94769012 96.47550781 92.94212341 97.30126953 C92.44762741 99.96318274 91.76282377 100.83846605 89.55444336 102.38818359 C87.40937805 102.74894714 87.40937805 102.74894714 84.89941406 102.72875977 C83.95866531 102.72853317 83.01791656 102.72830658 82.04866028 102.72807312 C81.03607651 102.71258926 80.02349274 102.69710541 78.98022461 102.68115234 C77.94125534 102.6769075 76.90228607 102.67266266 75.83183289 102.66828918 C72.5099406 102.65148208 69.18865261 102.61382556 65.86694336 102.57568359 C63.61630107 102.56063941 61.36564929 102.54695054 59.11499023 102.53466797 C53.59460139 102.50157196 48.07456554 102.45135228 42.55444336 102.38818359 C42.56332581 102.98286942 42.57220825 103.57755524 42.58135986 104.19026184 C42.66973982 110.37047734 42.73013852 116.55051384 42.77416992 122.73120117 C42.79430599 125.03889251 42.82161692 127.3465327 42.85620117 129.65405273 C42.90463051 132.96790167 42.9273922 136.28107707 42.94506836 139.59521484 C42.9657135 140.62967239 42.98635864 141.66412994 43.00762939 142.72993469 C43.00808258 144.17108894 43.00808258 144.17108894 43.00854492 145.64135742 C43.01742737 146.48741043 43.02630981 147.33346344 43.03546143 148.20515442 C42.55444336 150.38818359 42.55444336 150.38818359 40.79718018 152.15960693 C38.35673601 153.49648816 36.97544691 153.77217253 34.21655273 153.79223633 C32.94503357 153.81126259 32.94503357 153.81126259 31.64782715 153.83067322 C30.740448 153.82773758 29.83306885 153.82480194 28.89819336 153.82177734 C27.95890991 153.8270192 27.01962646 153.83226105 26.05187988 153.83766174 C24.06820666 153.8440783 22.08449537 153.84274969 20.10083008 153.83422852 C17.06514847 153.82571362 14.03134558 153.85449283 10.99584961 153.88623047 C9.06746476 153.88784246 7.13907657 153.88726499 5.21069336 153.88427734 C4.30331421 153.89551132 3.39593506 153.9067453 2.46105957 153.9183197 C-1.20665566 153.87773047 -3.7540371 153.75390867 -7.0246582 152.02416992 C-9.33328719 147.74130614 -8.93419396 143.49902296 -8.83618164 138.71630859 C-8.83052185 137.67875427 -8.82486206 136.64119995 -8.81903076 135.57220459 C-8.79665155 132.26039368 -8.74645083 128.94966715 -8.69555664 125.63818359 C-8.6754937 123.39210548 -8.65724258 121.14601039 -8.64086914 118.89990234 C-8.59678182 113.39562651 -8.52985405 107.89198252 -8.44555664 102.38818359 C-9.02771439 102.39928665 -9.60987213 102.41038971 -10.20967102 102.42182922 C-16.26006756 102.53230995 -22.31017844 102.60780333 -28.36132812 102.6628418 C-30.62056106 102.68801114 -32.87971238 102.72214953 -35.13867188 102.76538086 C-38.38309846 102.82592449 -41.62645023 102.85436917 -44.87133789 102.87646484 C-46.39021355 102.91517448 -46.39021355 102.91517448 -47.93977356 102.95466614 C-54.81322649 102.95742542 -54.81322649 102.95742542 -57.5793457 100.46728516 C-58.79468554 96.14714252 -58.89369762 92.10511666 -58.87915039 87.63427734 C-58.88439224 86.69640884 -58.88963409 85.75854034 -58.89503479 84.79225159 C-58.90144396 82.81455473 -58.90013233 80.8368197 -58.89160156 78.85913086 C-58.88307533 75.83232009 -58.91189437 72.80738697 -58.94360352 69.78076172 C-58.94521526 67.85693416 -58.94463852 65.93310326 -58.94165039 64.00927734 C-58.95288437 63.10503525 -58.96411835 62.20079315 -58.97569275 61.26914978 C-58.93494498 57.60112837 -58.81290821 55.07529963 -57.06787109 51.8112793 C-52.84757378 49.52097923 -48.71269019 49.89867925 -43.99243164 49.99755859 C-42.97707336 50.00321838 -41.96171509 50.00887817 -40.91558838 50.01470947 C-37.67509663 50.03708606 -34.43571374 50.08728605 -31.19555664 50.13818359 C-28.99765595 50.15824688 -26.79973792 50.17649795 -24.60180664 50.19287109 C-19.21601214 50.23695488 -13.83086361 50.30387986 -8.44555664 50.38818359 C-8.45443909 49.80602585 -8.46332153 49.2238681 -8.47247314 48.62406921 C-8.56085854 42.57361657 -8.62125399 36.5233468 -8.6652832 30.47241211 C-8.6854183 28.21322178 -8.71272853 25.95408367 -8.74731445 23.69506836 C-8.79574826 20.45071539 -8.8185064 17.20705042 -8.83618164 13.96240234 C-8.86714935 12.44352669 -8.86714935 12.44352669 -8.89874268 10.89396667 C-8.8990448 9.95321793 -8.89934692 9.01246918 -8.8996582 8.04321289 C-8.90854065 7.21492477 -8.9174231 6.38663666 -8.92657471 5.5332489 C-8.44555664 3.38818359 -8.44555664 3.38818359 -6.69502258 1.62150574 C-4.21523857 0.26190634 -2.80602262 0.00876934 0 0 Z " fill="#6D34AE" transform="translate(76.445556640625,4.61181640625)"/>
<path d="M0 0 C1.07030457 0.00303635 1.07030457 0.00303635 2.16223145 0.00613403 C2.89091431 0.00517731 3.61959717 0.00422058 4.37036133 0.00323486 C5.91377855 0.00255318 7.45719861 0.00440666 9.00061035 0.00857544 C11.37095544 0.01392391 13.74111104 0.00863011 16.1114502 0.00222778 C17.60754437 0.00288857 19.10363842 0.00416973 20.59973145 0.00613403 C21.31326782 0.0041098 22.0268042 0.00208557 22.76196289 0 C27.76602953 0.02399462 27.76602953 0.02399462 28.88098145 1.13894653 C29.01679911 4.25415674 29.09170084 7.35023785 29.1270752 10.46707153 C29.16002461 12.40066962 29.19323607 14.33426326 29.22668457 16.26785278 C29.27404512 19.32690237 29.31844272 22.38593532 29.35778809 25.44509888 C29.39757281 28.39012111 29.44911605 31.33476085 29.5020752 34.27957153 C29.51048935 35.19120056 29.5189035 36.10282959 29.52757263 37.04208374 C29.63527764 43.32481206 29.63527764 43.32481206 31.88098145 49.13894653 C34.20950096 50.30320629 35.64378329 50.29352646 38.2388916 50.3442688 C39.13967438 50.36421402 40.04045715 50.38415924 40.96853638 50.40470886 C42.42953262 50.4297776 42.42953262 50.4297776 43.92004395 50.45535278 C45.41403214 50.48652443 45.41403214 50.48652443 46.9382019 50.51832581 C50.12738998 50.58383695 53.31666202 50.64271358 56.50598145 50.70144653 C58.66484438 50.74463026 60.82369875 50.7882445 62.98254395 50.83230591 C68.28193823 50.94033202 73.58139402 51.03939393 78.88098145 51.13894653 C78.88098145 58.39894653 78.88098145 65.65894653 78.88098145 73.13894653 C76.60578613 73.18793091 74.33059082 73.23691528 71.9864502 73.28738403 C69.78220052 73.34139892 67.57805926 73.3987043 65.37390137 73.45632935 C63.84240805 73.49460451 62.31082529 73.52946002 60.7791748 73.56082153 C58.57710815 73.6065046 56.37565649 73.6644919 54.1739502 73.72488403 C53.48947311 73.73643524 52.80499603 73.74798645 52.09977722 73.7598877 C48.49637308 73.87168397 46.96506315 74.08289207 43.88098145 76.13894653 C41.57098145 72.17894653 39.26098145 68.21894653 36.88098145 64.13894653 C33.76501232 64.80522165 33.76501232 64.80522165 32.7130127 67.20535278 C32.37656738 68.02906372 32.04012207 68.85277466 31.69348145 69.70144653 C31.34930176 70.5277356 31.00512207 71.35402466 30.6505127 72.20535278 C30.39656738 72.84343872 30.14262207 73.48152466 29.88098145 74.13894653 C29.22098145 74.13894653 28.56098145 74.13894653 27.88098145 74.13894653 C27.47879395 73.17988403 27.47879395 73.17988403 27.06848145 72.20144653 C25.99430392 69.80762967 25.99430392 69.80762967 22.88098145 69.13894653 C22.59223145 70.10832153 22.30348145 71.07769653 22.00598145 72.07644653 C20.88098145 75.13894653 20.88098145 75.13894653 18.88098145 76.13894653 C18.80581299 75.29936401 18.73064453 74.45978149 18.65319824 73.59475708 C16.89844033 53.63163321 16.89844033 53.63163321 14.31848145 33.76394653 C14.14675415 32.59931885 14.14675415 32.59931885 13.97155762 31.41116333 C13.68214814 29.64004298 13.29285904 27.88565257 12.88098145 26.13894653 C12.22098145 25.80894653 11.56098145 25.47894653 10.88098145 25.13894653 C9.17966203 34.6874014 7.93025912 44.26549227 6.75598145 53.88894653 C6.57262058 55.37595444 6.38902825 56.86293381 6.2052002 58.34988403 C5.76113277 61.94591427 5.32017172 65.54231698 4.88098145 69.13894653 C3.89098145 68.64394653 3.89098145 68.64394653 2.88098145 68.13894653 C2.28674316 66.09768677 2.28674316 66.09768677 1.81066895 63.44754028 C1.63664551 62.503302 1.46262207 61.55906372 1.2833252 60.58621216 C1.10930176 59.5929895 0.93527832 58.59976685 0.75598145 57.57644653 C0.57422363 56.57935669 0.39246582 55.58226685 0.2052002 54.55496216 C-0.24401876 52.08425792 -0.68504104 49.61236569 -1.11901855 47.13894653 C-3.86882666 49.52961214 -5.01590755 51.83950544 -6.34558105 55.20925903 C-6.93339355 56.67685669 -6.93339355 56.67685669 -7.53308105 58.17410278 C-7.93269043 59.19375122 -8.3322998 60.21339966 -8.74401855 61.26394653 C-9.5466142 63.28821468 -10.35119396 65.31169766 -11.15808105 67.33425903 C-11.51080078 68.23160767 -11.86352051 69.1289563 -12.22692871 70.05349731 C-13.11901855 72.13894653 -13.11901855 72.13894653 -14.11901855 73.13894653 C-17.14879659 73.22765926 -20.15568878 73.25414004 -23.1854248 73.23660278 C-24.0940477 73.23518784 -25.00267059 73.23377289 -25.93882751 73.23231506 C-28.85309076 73.22669847 -31.76727836 73.21414318 -34.68151855 73.20144653 C-36.65222057 73.19643367 -38.62292379 73.19187039 -40.59362793 73.18777466 C-45.4354777 73.1775727 -50.27716303 73.15800062 -55.11901855 73.13894653 C-55.11901855 65.87894653 -55.11901855 58.61894653 -55.11901855 51.13894653 C-50.53253418 51.04806763 -50.53253418 51.04806763 -45.85339355 50.95535278 C-42.89129214 50.89354048 -39.92922809 50.83016226 -36.96716309 50.76663208 C-34.90892869 50.72332644 -32.85065938 50.68164825 -30.7923584 50.64163208 C-27.83342977 50.58382378 -24.87467616 50.52015958 -21.91589355 50.45535278 C-20.99596619 50.43864029 -20.07603882 50.4219278 -19.12823486 50.40470886 C-17.83734955 50.37479103 -17.83734955 50.37479103 -16.52038574 50.3442688 C-15.76537781 50.32872452 -15.01036987 50.31318024 -14.23248291 50.29716492 C-12.09422184 50.1370902 -10.17912772 49.72078286 -8.11901855 49.13894653 C-7.30077334 46.25562452 -6.97828443 43.6550701 -6.92956543 40.66165161 C-6.90448914 39.34557671 -6.90448914 39.34557671 -6.87890625 38.00291443 C-6.86533081 37.06425034 -6.85175537 36.12558624 -6.83776855 35.15847778 C-6.81935913 34.18988327 -6.80094971 33.22128876 -6.78198242 32.2233429 C-6.70330625 28.08016979 -6.63532114 23.93683875 -6.56677246 19.79348755 C-6.51520518 16.76923182 -6.45791727 13.74512269 -6.40026855 10.72097778 C-6.38669312 9.776241 -6.37311768 8.83150421 -6.35913086 7.85813904 C-6.33405457 6.55624886 -6.33405457 6.55624886 -6.30847168 5.22805786 C-6.28967957 4.0770031 -6.28967957 4.0770031 -6.27050781 2.9026947 C-5.94206855 -0.92123422 -3.21401573 0.01541128 0 0 Z " fill="#FBFAFC" transform="translate(82.1190185546875,12.861053466796875)"/>
<path d="M0 0 C0.66 0 1.32 0 2 0 C3.69170387 7.31380835 5.38226062 14.62788117 7.07202148 21.94213867 C7.64695268 24.43015545 8.2221461 26.91811164 8.79760742 29.40600586 C9.62487693 32.98275092 10.4512021 36.55971303 11.27734375 40.13671875 C11.53466782 41.24834885 11.79199188 42.35997894 12.05711365 43.5052948 C12.29728714 44.54599625 12.53746063 45.58669769 12.78491211 46.65893555 C12.99587021 47.5716069 13.20682831 48.48427826 13.42417908 49.42460632 C13.98730756 51.9432323 14.50420096 54.46734126 15 57 C15.66 56.67 16.32 56.34 17 56 C17.76965315 53.127423 17.76965315 53.127423 18.33203125 49.62109375 C18.57572029 48.29353682 18.81987667 46.96606561 19.06445312 45.63867188 C19.43930186 43.54883529 19.80890725 41.45836549 20.16918945 39.3659668 C21.56871796 31.32083617 22.97897522 24.62366087 28 18 C30.42999536 20.27364177 31.42805835 21.68273845 32 25 C32.99 25 33.98 25 35 25 C35.20496094 24.30132812 35.40992187 23.60265625 35.62109375 22.8828125 C35.89050781 21.97273438 36.15992187 21.06265625 36.4375 20.125 C36.70433594 19.22007813 36.97117187 18.31515625 37.24609375 17.3828125 C38 15 38 15 39 13 C42 14 42 14 43.28125 16.03125 C44.09375 17.67708333 44.90625 19.32291667 45.71875 20.96875 C46.90145808 23.31920038 46.90145808 23.31920038 50 24 C50.4640625 23.0409375 50.4640625 23.0409375 50.9375 22.0625 C52 20 52 20 53 19 C55.21855264 18.91216458 57.43988496 18.89305391 59.66015625 18.90234375 C60.65685585 18.90446617 60.65685585 18.90446617 61.6736908 18.90663147 C63.80333899 18.91224482 65.93288339 18.92479946 68.0625 18.9375 C69.50325369 18.94251329 70.94400903 18.94707649 72.38476562 18.95117188 C75.92321102 18.96221855 79.46159539 18.97949208 83 19 C83 22.3 83 25.6 83 29 C80.97879028 29.03758423 80.97879028 29.03758423 78.91674805 29.07592773 C73.92397322 29.17000223 68.93133751 29.27022294 63.9387207 29.37231445 C61.7766444 29.41566313 59.61453387 29.45733825 57.45239258 29.49731445 C54.34706298 29.55501844 51.24190564 29.61871272 48.13671875 29.68359375 C47.16788254 29.70030624 46.19904633 29.71701874 45.20085144 29.73423767 C44.3001442 29.75418289 43.39943695 29.77412811 42.47143555 29.79467773 C41.67867722 29.81022202 40.88591888 29.8257663 40.06913757 29.84178162 C37.80260226 29.93081226 37.80260226 29.93081226 35 31 C33.94255751 33.79251872 33.85430311 36.52893127 33.79467773 39.49316406 C33.77473251 40.37377502 33.75478729 41.25438599 33.73423767 42.16168213 C33.71752518 43.10348328 33.70081268 44.04528442 33.68359375 45.015625 C33.6524221 46.47207428 33.6524221 46.47207428 33.62062073 47.95794678 C33.55531138 51.05522685 33.49632677 54.15259068 33.4375 57.25 C33.39429708 59.35157111 33.35068222 61.4531338 33.30664062 63.5546875 C33.19887494 68.70304045 33.09966287 73.85145829 33 79 C21.45 79 9.9 79 -2 79 C-2.04898438 75.78636719 -2.09796875 72.57273437 -2.1484375 69.26171875 C-2.20242602 66.15400479 -2.2597419 63.04636881 -2.31738281 59.9387207 C-2.35569804 57.77667027 -2.3905464 55.61455553 -2.421875 53.45239258 C-2.46747017 50.34693396 -2.52547384 47.24191901 -2.5859375 44.13671875 C-2.59748871 43.16788254 -2.60903992 42.19904633 -2.62094116 41.20085144 C-2.64081085 40.3001442 -2.66068054 39.39943695 -2.68115234 38.47143555 C-2.69447601 37.67867722 -2.70779968 36.88591888 -2.7215271 36.06913757 C-2.88713582 33.69396892 -2.88713582 33.69396892 -5 31 C-7.73562834 30.08812389 -9.46145475 29.85269741 -12.2878418 29.79467773 C-13.14850754 29.77473251 -14.00917328 29.75478729 -14.8959198 29.73423767 C-16.28355278 29.70916893 -16.28355278 29.70916893 -17.69921875 29.68359375 C-18.64940384 29.66281265 -19.59958893 29.64203156 -20.5785675 29.62062073 C-23.61480456 29.55521948 -26.65112831 29.49628396 -29.6875 29.4375 C-31.74545169 29.39430583 -33.80339459 29.35069124 -35.86132812 29.30664062 C-40.90746316 29.19954769 -45.95368543 29.09825354 -51 29 C-51 25.7 -51 22.4 -51 19 C-36.81 18.67 -22.62 18.34 -8 18 C-5.36 12.06 -2.72 6.12 0 0 Z " fill="#FAF9FB" transform="translate(78,70)"/>
<path d="M0 0 C4.875 0.875 4.875 0.875 6 2 C6.10849633 3.42641312 6.14901326 4.85809215 6.16113281 6.28857422 C6.17074036 7.1997702 6.1803479 8.11096619 6.19024658 9.04977417 C6.1966214 10.53720627 6.1966214 10.53720627 6.203125 12.0546875 C6.20882507 13.0671756 6.21452515 14.0796637 6.22039795 15.12283325 C6.22986417 17.26986643 6.23638834 19.41691424 6.24023438 21.56396484 C6.24993835 24.85409837 6.2809461 28.14360706 6.3125 31.43359375 C6.31902981 33.51562127 6.32428037 35.59765329 6.328125 37.6796875 C6.3404718 38.66726044 6.3528186 39.65483337 6.36553955 40.67233276 C6.36253845 41.58983307 6.35953735 42.50733337 6.35644531 43.45263672 C6.36191376 44.66389725 6.36191376 44.66389725 6.36749268 45.89962769 C6 48 6 48 4.7686615 49.76292419 C2.48312986 51.36152059 1.1222459 51.36291351 -1.6550293 51.34057617 C-2.59577805 51.34034958 -3.53652679 51.34012299 -4.50578308 51.33988953 C-5.51836685 51.32440567 -6.53095062 51.30892181 -7.57421875 51.29296875 C-8.61318802 51.28872391 -9.65215729 51.28447906 -10.72261047 51.28010559 C-14.04450276 51.26329849 -17.36579075 51.22564196 -20.6875 51.1875 C-22.93814229 51.17245582 -25.18879407 51.15876695 -27.43945312 51.14648438 C-32.95984197 51.11338836 -38.47987782 51.06316869 -44 51 C-43.99111755 51.59468582 -43.98223511 52.18937164 -43.9730835 52.80207825 C-43.88470354 58.98229374 -43.82430484 65.16233025 -43.78027344 71.34301758 C-43.76013737 73.65070891 -43.73282644 75.95834911 -43.69824219 78.26586914 C-43.64981285 81.57971808 -43.62705116 84.89289347 -43.609375 88.20703125 C-43.58872986 89.2414888 -43.56808472 90.27594635 -43.54681396 91.3417511 C-43.54636078 92.78290535 -43.54636078 92.78290535 -43.54589844 94.25317383 C-43.53701599 95.09922684 -43.52813354 95.94527985 -43.51898193 96.81697083 C-44 99 -44 99 -45.75726318 100.77142334 C-48.19770735 102.10830457 -49.57899645 102.38398893 -52.33789062 102.40405273 C-53.18557007 102.41673691 -54.03324951 102.42942108 -54.90661621 102.44248962 C-55.81399536 102.43955399 -56.72137451 102.43661835 -57.65625 102.43359375 C-58.59553345 102.4388356 -59.53481689 102.44407745 -60.50256348 102.44947815 C-62.4862367 102.4558947 -64.46994798 102.4545661 -66.45361328 102.44604492 C-69.48929489 102.43753003 -72.52309778 102.46630924 -75.55859375 102.49804688 C-77.4869786 102.49965887 -79.41536679 102.49908139 -81.34375 102.49609375 C-82.25112915 102.50732773 -83.1585083 102.51856171 -84.09338379 102.53013611 C-87.76109902 102.48954688 -90.30848046 102.36572507 -93.57910156 100.63598633 C-95.88773055 96.35312255 -95.48863732 92.11083936 -95.390625 87.328125 C-95.38496521 86.29057068 -95.37930542 85.25301636 -95.37347412 84.184021 C-95.35109491 80.87221008 -95.30089419 77.56148356 -95.25 74.25 C-95.22993706 72.00392188 -95.21168594 69.75782679 -95.1953125 67.51171875 C-95.15462766 62.00705929 -95.07633695 56.50474243 -95 51 C-107.87 51 -120.74 51 -134 51 C-134 50.01 -134 49.02 -134 48 C-135.32 47.34 -136.64 46.68 -138 46 C-135.06065115 44.3242042 -132.9282516 43.74315046 -129.55444336 43.70947266 C-128.68351547 43.69671295 -127.81258759 43.68395325 -126.91526794 43.67080688 C-125.51668297 43.66746841 -125.51668297 43.66746841 -124.08984375 43.6640625 C-123.12599258 43.6574057 -122.16214142 43.6507489 -121.16908264 43.64389038 C-119.13414415 43.6337763 -117.09917258 43.62907298 -115.06420898 43.62939453 C-111.94524987 43.62501089 -108.82769415 43.58864937 -105.70898438 43.55078125 C-103.73177568 43.54491502 -101.75456025 43.54094433 -99.77734375 43.5390625 C-98.84292953 43.52469147 -97.90851532 43.51032043 -96.94578552 43.49551392 C-96.0780098 43.50166718 -95.21023407 43.50782043 -94.31616211 43.51416016 C-93.55323349 43.51131012 -92.79030487 43.50846008 -92.0042572 43.50552368 C-90 44 -90 44 -88.25152588 45.74380493 C-86.84368213 48.28180288 -86.63514643 49.70404358 -86.65942383 52.58496094 C-86.65976372 53.93590851 -86.65976372 53.93590851 -86.66011047 55.31414795 C-86.67559433 56.27782288 -86.69107819 57.2414978 -86.70703125 58.234375 C-86.71127609 59.22753723 -86.71552094 60.22069946 -86.71989441 61.24395752 C-86.73667366 64.41291528 -86.774325 67.58123478 -86.8125 70.75 C-86.82754779 72.89973039 -86.84123603 75.04947076 -86.85351562 77.19921875 C-86.88402163 82.46658896 -86.94274544 87.73258089 -87 93 C-75.45 93 -63.9 93 -52 93 C-52.02320312 89.87015625 -52.04640625 86.7403125 -52.0703125 83.515625 C-52.08591036 80.4840536 -52.09805435 77.45248668 -52.10986328 74.42089844 C-52.11992034 72.31410725 -52.13356768 70.20733001 -52.15087891 68.10058594 C-52.17514 65.07223059 -52.18648608 62.04405981 -52.1953125 59.015625 C-52.20563507 58.07382385 -52.21595764 57.13202271 -52.22659302 56.16168213 C-52.22674408 55.28107117 -52.22689514 54.40046021 -52.22705078 53.49316406 C-52.231492 52.72039124 -52.23593323 51.94761841 -52.24050903 51.15142822 C-51.96186302 48.65885282 -51.34433624 47.11299292 -50 45 C-46.84274381 42.89516254 -46.12625389 42.7527941 -42.52856445 42.77294922 C-41.17750359 42.77317581 -41.17750359 42.77317581 -39.79914856 42.77340698 C-38.83031235 42.78372955 -37.86147614 42.79405212 -36.86328125 42.8046875 C-35.37141548 42.80893234 -35.37141548 42.80893234 -33.84941101 42.81326294 C-30.6703187 42.82446511 -27.49150728 42.84956986 -24.3125 42.875 C-22.15820719 42.88502975 -20.00390997 42.89415561 -17.84960938 42.90234375 C-12.56629789 42.92440459 -7.28319658 42.95893479 -2 43 C-2 39.7 -2 36.4 -2 33 C-6.21830098 33.0441428 -10.43516084 33.11395969 -14.65258789 33.20751953 C-16.08703683 33.23573182 -17.52164129 33.25694524 -18.95629883 33.27099609 C-21.01985302 33.29242449 -23.08153706 33.33906467 -25.14453125 33.390625 C-27.00621948 33.4220459 -27.00621948 33.4220459 -28.90551758 33.45410156 C-32.10058222 33.70083395 -32.10058222 33.70083395 -33.9284668 36.03808594 C-34.28207275 36.68551758 -34.63567871 37.33294922 -35 38 C-36.8359375 37.78125 -36.8359375 37.78125 -39 37 C-40.4140625 34.96875 -40.4140625 34.96875 -41.625 32.5 C-43.13502598 29.09160458 -43.13502598 29.09160458 -46 27 C-46.20496094 27.69867188 -46.40992187 28.39734375 -46.62109375 29.1171875 C-46.89050781 30.02726562 -47.15992187 30.93734375 -47.4375 31.875 C-47.70433594 32.77992187 -47.97117187 33.68484375 -48.24609375 34.6171875 C-49 37 -49 37 -50 39 C-50.99 39 -51.98 39 -53 39 C-53.99 36.69 -54.98 34.38 -56 32 C-55.2575 31.855625 -54.515 31.71125 -53.75 31.5625 C-49.56152352 29.18268382 -48.61547154 25.3861406 -47 21 C-45.68 21 -44.36 21 -43 21 C-41.02 24.63 -39.04 28.26 -37 32 C-36.01 31.34 -35.02 30.68 -34 30 C-31.52943177 29.82887998 -29.17496079 29.76746876 -26.70703125 29.8046875 C-26.00100266 29.8075174 -25.29497406 29.81034729 -24.56755066 29.81326294 C-22.31569367 29.82444536 -20.06423648 29.8495458 -17.8125 29.875 C-16.28451096 29.88503233 -14.75651567 29.89415774 -13.22851562 29.90234375 C-9.48552337 29.92437828 -5.74282944 29.95889433 -2 30 C-2.01047363 29.19780029 -2.02094727 28.39560059 -2.03173828 27.5690918 C-2.07325767 23.94192628 -2.09931343 20.31481072 -2.125 16.6875 C-2.14175781 15.42486328 -2.15851563 14.16222656 -2.17578125 12.86132812 C-2.18222656 11.65283203 -2.18867188 10.44433594 -2.1953125 9.19921875 C-2.20578613 8.08377686 -2.21625977 6.96833496 -2.22705078 5.8190918 C-2 3 -2 3 0 0 Z " fill="#6A30AC" transform="translate(163,56)"/>
<path d="M0 0 C0.99 0.33 1.98 0.66 3 1 C5.88506566 17.24639813 7.47507294 33.58210901 9 50 C9.99 48.02 10.98 46.04 12 44 C13.98 44.495 13.98 44.495 16 45 C16.495 47.475 16.495 47.475 17 50 C16.4225 50.020625 15.845 50.04125 15.25 50.0625 C12.40653632 51.24727653 11.4676202 52.85301552 10.01660156 55.50610352 C7.69462721 61.2023014 6.85880677 67.40871498 5.75 73.4375 C5.48033494 74.85113482 5.20951158 76.2645492 4.9375 77.67773438 C4.27827866 81.11604778 3.63483135 84.55708949 3 88 C1.515 88.495 1.515 88.495 0 89 C-2.26154882 82.6236003 -3.996199 76.23417184 -5.48046875 69.63671875 C-5.80704216 68.20511162 -5.80704216 68.20511162 -6.14021301 66.74458313 C-6.59529111 64.74420756 -7.04811816 62.74331865 -7.4987793 60.74194336 C-8.18979526 57.67732062 -8.89032338 54.61497836 -9.59179688 51.55273438 C-10.03442226 49.60169129 -10.47649906 47.65052366 -10.91796875 45.69921875 C-11.12729538 44.78565109 -11.33662201 43.87208344 -11.55229187 42.93083191 C-11.74281631 42.07927017 -11.93334076 41.22770844 -12.12963867 40.3503418 C-12.29823898 39.60471481 -12.46683929 38.85908783 -12.64054871 38.09086609 C-13 36 -13 36 -13 32 C-13.66 32 -14.32 32 -15 32 C-15.15855469 32.53367188 -15.31710938 33.06734375 -15.48046875 33.6171875 C-17.4621786 39.94552061 -19.94761985 44.8952397 -23 51 C-37.19 51 -51.38 51 -66 51 C-66 50.01 -66 49.02 -66 48 C-52.47 47.67 -38.94 47.34 -25 47 C-21.83196745 39.15147139 -21.83196745 39.15147139 -18.68823242 31.29321289 C-18.28967041 30.3211792 -17.8911084 29.34914551 -17.48046875 28.34765625 C-17.07723389 27.34742432 -16.67399902 26.34719238 -16.25854492 25.31665039 C-15 23 -15 23 -12 22 C-10.02883011 26.34514406 -9.19186264 30.64888115 -8.375 35.3125 C-8.17390625 36.42334961 -8.17390625 36.42334961 -7.96875 37.55664062 C-7.64113016 39.37025044 -7.31991506 41.18501524 -7 43 C-6.85900879 41.94611084 -6.71801758 40.89222168 -6.57275391 39.80639648 C-6.04492905 35.87143638 -5.51027876 31.93742807 -4.97363281 28.00366211 C-4.74294748 26.30566945 -4.51407809 24.607429 -4.28710938 22.90893555 C-3.95928171 20.45813621 -3.62478819 18.00832214 -3.2890625 15.55859375 C-3.14049301 14.43160316 -3.14049301 14.43160316 -2.98892212 13.28184509 C-2.35303874 8.69992892 -1.37049472 4.4197181 0 0 Z " fill="#7039AF" transform="translate(93,38)"/>
<path d="M0 0 C0.99316223 0.00565979 1.98632446 0.01131958 3.00958252 0.01715088 C6.17875559 0.03952474 9.3467942 0.08972394 12.515625 0.140625 C14.66534824 0.16068865 16.81508923 0.17893966 18.96484375 0.1953125 C24.23215729 0.23939261 29.49881009 0.30631467 34.765625 0.390625 C34.765625 1.050625 34.765625 1.710625 34.765625 2.390625 C36.415625 2.390625 38.065625 2.390625 39.765625 2.390625 C39.765625 2.720625 39.765625 3.050625 39.765625 3.390625 C35.18072095 4.27676425 30.72200761 4.55168093 26.06640625 4.6015625 C24.5956914 4.62959973 23.12498838 4.65826391 21.65429688 4.6875 C19.35668891 4.72891167 17.05931012 4.76583914 14.76147461 4.79199219 C12.52933493 4.81954067 10.29817115 4.86536487 8.06640625 4.9140625 C7.03511345 4.9189418 7.03511345 4.9189418 5.98298645 4.92391968 C1.70617784 5.03443674 0.95918177 5.19706823 -2.234375 8.390625 C10.965625 8.390625 24.165625 8.390625 37.765625 8.390625 C37.765625 8.720625 37.765625 9.050625 37.765625 9.390625 C23.575625 9.390625 9.385625 9.390625 -5.234375 9.390625 C-5.234375 20.940625 -5.234375 32.490625 -5.234375 44.390625 C8.955625 44.390625 23.145625 44.390625 37.765625 44.390625 C37.765625 44.720625 37.765625 45.050625 37.765625 45.390625 C36.53408691 45.41568115 35.30254883 45.4407373 34.03369141 45.46655273 C29.47515007 45.56055112 24.91676382 45.66079015 20.35839844 45.76293945 C18.38350038 45.80631703 16.40856413 45.84799 14.43359375 45.88793945 C11.5988411 45.94557373 8.76428122 46.0092877 5.9296875 46.07421875 C4.59993393 46.09928749 4.59993393 46.09928749 3.24331665 46.12486267 C-1.13362655 46.10147711 -1.13362655 46.10147711 -5.234375 47.390625 C-3.584375 48.380625 -1.934375 49.370625 -0.234375 50.390625 C-3.14679188 52.33223625 -3.94057801 52.72207472 -7.234375 52.828125 C-8.2553125 52.88806641 -8.2553125 52.88806641 -9.296875 52.94921875 C-11.234375 52.390625 -11.234375 52.390625 -12.82836914 50.46533203 C-14.79900859 46.15586282 -14.68321938 42.32373765 -14.66796875 37.63671875 C-14.6732106 36.69885025 -14.67845245 35.76098175 -14.68385315 34.79469299 C-14.69026232 32.81699614 -14.68895069 30.83926111 -14.68041992 28.86157227 C-14.67189369 25.8347615 -14.70071273 22.80982837 -14.73242188 19.78320312 C-14.73403362 17.85937556 -14.73345688 15.93554466 -14.73046875 14.01171875 C-14.74170273 13.10747665 -14.75293671 12.20323456 -14.76451111 11.27159119 C-14.72366909 7.59508593 -14.60599105 5.07888739 -12.84301758 1.8137207 C-8.68459641 -0.45482745 -4.65699493 -0.09976841 0 0 Z " fill="#723CB1" transform="translate(32.234375,54.609375)"/>
<path d="M0 0 C1.04929688 -0.01417969 2.09859375 -0.02835938 3.1796875 -0.04296875 C6.06047071 0.18245063 7.68740208 0.69785683 10.125 2.1875 C9.795 2.8475 9.465 3.5075 9.125 4.1875 C9.785 4.1875 10.445 4.1875 11.125 4.1875 C11.125 4.8475 11.125 5.5075 11.125 6.1875 C12.548125 6.3421875 12.548125 6.3421875 14 6.5 C17.125 7.1875 17.125 7.1875 19.125 10.1875 C19.3203125 13.10546875 19.3203125 13.10546875 19.25 16.375 C19.23195312 17.46167969 19.21390625 18.54835937 19.1953125 19.66796875 C19.17210937 20.49941406 19.14890625 21.33085937 19.125 22.1875 C17.475 22.1875 15.825 22.1875 14.125 22.1875 C13.795 22.8475 13.465 23.5075 13.125 24.1875 C9.84576495 25.42632213 6.53941762 26.39955747 3.125 27.1875 C2.795 25.8675 2.465 24.5475 2.125 23.1875 C1.44953125 23.10113281 0.7740625 23.01476562 0.078125 22.92578125 C-4.07953457 22.27088979 -7.11159322 21.76914326 -10.5 19.1875 C-12.49897705 14.82609553 -12.66487761 10.90353399 -11.875 6.1875 C-8.54612892 0.7503439 -6.14679007 0.03757207 0 0 Z " fill="#FBFAFA" transform="translate(133.875,172.8125)"/>
<path d="M0 0 C0.99 0 1.98 0 3 0 C3 1.65 3 3.3 3 5 C4.32 5 5.64 5 7 5 C7 5.66 7 6.32 7 7 C5.68 7 4.36 7 3 7 C3 10.63 3 14.26 3 18 C4.32 18 5.64 18 7 18 C5.125 22.75 5.125 22.75 4 25 C-4.58 25 -13.16 25 -22 25 C-21.34 23.35 -20.68 21.7 -20 20 C-21.670625 20.061875 -21.670625 20.061875 -23.375 20.125 C-27 20 -27 20 -29 18 C-29.125 15.375 -29.125 15.375 -29 13 C-25.86501708 11.14223235 -23.62528568 10.79859524 -20 11 C-20.33 10.01 -20.66 9.02 -21 8 C-23.31 7.67 -25.62 7.34 -28 7 C-28 6.34 -28 5.68 -28 5 C-27.05125 4.71125 -26.1025 4.4225 -25.125 4.125 C-21.94788422 3.23174891 -21.94788422 3.23174891 -20 1 C-16 5.625 -16 5.625 -16 9 C-15.01 9 -14.02 9 -13 9 C-13 7.68 -13 6.36 -13 5 C-6.565 4.505 -6.565 4.505 0 4 C0 2.68 0 1.36 0 0 Z " fill="#F9F8F9" transform="translate(100,175)"/>
<path d="M0 0 C0 0.99 0 1.98 0 3 C-4.455 3.495 -4.455 3.495 -9 4 C-8.48092973 8.02635231 -8.48092973 8.02635231 -5.9375 9.3125 C-1.90937211 10.25525334 0.93872168 9.81225566 5 9 C5.33 8.34 5.66 7.68 6 7 C9.12492251 6.94208156 12.24970766 6.90643254 15.375 6.875 C16.26445313 6.85824219 17.15390625 6.84148437 18.0703125 6.82421875 C18.92109375 6.81777344 19.771875 6.81132812 20.6484375 6.8046875 C21.82672119 6.78897705 21.82672119 6.78897705 23.02880859 6.77294922 C25 7 25 7 27 9 C27.1953125 11.8203125 27.1953125 11.8203125 27.125 15.125 C27.10695312 16.22070312 27.08890625 17.31640625 27.0703125 18.4453125 C27.04710937 19.28835937 27.02390625 20.13140625 27 21 C26.34 21 25.68 21 25 21 C24.67 17.7 24.34 14.4 24 11 C21.525 10.505 21.525 10.505 19 10 C19.05220703 11.46373047 19.05220703 11.46373047 19.10546875 12.95703125 C19.13253906 14.22933594 19.15960938 15.50164062 19.1875 16.8125 C19.23970703 18.70935547 19.23970703 18.70935547 19.29296875 20.64453125 C19 24 19 24 17.91015625 25.69140625 C15.02128044 27.67049295 12.61141924 27.33685341 9.14453125 27.29296875 C8.48289474 27.28872391 7.82125824 27.28447906 7.13957214 27.28010559 C5.0301309 27.26333693 2.92165154 27.22569099 0.8125 27.1875 C-0.61912681 27.17245068 -2.05076862 27.1587627 -3.48242188 27.14648438 C-6.98859288 27.1134403 -10.49420254 27.06167167 -14 27 C-13.01 25.35 -12.02 23.7 -11 22 C-11.66 21.67 -12.32 21.34 -13 21 C-13 20.01 -13 19.02 -13 18 C-9.7 18 -6.4 18 -3 18 C-3 16.68 -3 15.36 -3 14 C-3.55429687 13.73445312 -4.10859375 13.46890625 -4.6796875 13.1953125 C-5.40414062 12.84210938 -6.12859375 12.48890625 -6.875 12.125 C-7.59429688 11.77695313 -8.31359375 11.42890625 -9.0546875 11.0703125 C-11 10 -11 10 -13 8 C-12.84693397 5.01521245 -12.39802756 3.46171196 -10.4375 1.1875 C-6.8580787 -0.55632063 -3.95820158 -0.19791008 0 0 Z " fill="#FBFAFA" transform="translate(39,173)"/>
<path d="M0 0 C4.88886676 -0.07296816 9.21585517 -0.04653168 14 1 C14.33 0.67 14.66 0.34 15 0 C18.4375 -0.25 18.4375 -0.25 22 0 C24 3 24 3 24 8 C20.7 8 17.4 8 14 8 C14.33 8.99 14.66 9.98 15 11 C17.32891096 12.02700444 17.32891096 12.02700444 20.0625 12.6875 C20.98160156 12.93886719 21.90070313 13.19023437 22.84765625 13.44921875 C23.55792969 13.63097656 24.26820313 13.81273437 25 14 C25.33 15.65 25.66 17.3 26 19 C23.54724859 20.2263757 21.9494219 20.11415314 19.2109375 20.09765625 C18.26992187 20.09443359 17.32890625 20.09121094 16.359375 20.08789062 C14.88210937 20.07532227 14.88210937 20.07532227 13.375 20.0625 C12.38242188 20.05798828 11.38984375 20.05347656 10.3671875 20.04882812 C7.9113984 20.03702145 5.45572896 20.020554 3 20 C2.87625 19.360625 2.7525 18.72125 2.625 18.0625 C2.41875 17.381875 2.2125 16.70125 2 16 C1.34 15.67 0.68 15.34 0 15 C0 10.05 0 5.1 0 0 Z " fill="#FCFCFB" transform="translate(158,180)"/>
<path d="M0 0 C0.66 0 1.32 0 2 0 C4.09515582 11.62019195 4.11279357 23.47492397 4.1875 35.25 C4.20047119 36.32604492 4.21344238 37.40208984 4.22680664 38.51074219 C4.23523556 45.85851236 3.42640328 52.79444099 2 60 C1.34 60 0.68 60 0 60 C-0.6840086 57.56627296 -1.34701493 55.12957591 -2 52.6875 C-2.19078125 52.01654297 -2.3815625 51.34558594 -2.578125 50.65429688 C-5.61015471 39.12175531 -3.49796621 27.43807497 -2 15.8125 C-1.80667374 14.27286392 -1.61396098 12.73315068 -1.421875 11.19335938 C-0.95497501 7.4613135 -0.47981959 3.7304059 0 0 Z " fill="#FAF9FA" transform="translate(93,54)"/>
<path d="M0 0 C0.66 0 1.32 0 2 0 C2 0.66 2 1.32 2 2 C4.31 2 6.62 2 9 2 C9.33 3.32 9.66 4.64 10 6 C7.03 6.66 4.06 7.32 1 8 C1.66 9.98 2.32 11.96 3 14 C4.11375 13.95875 5.2275 13.9175 6.375 13.875 C10 14 10 14 12 16 C11.34 16 10.68 16 10 16 C9.34 17.32 8.68 18.64 8 20 C0.41 20 -7.18 20 -15 20 C-14.34 18.68 -13.68 17.36 -13 16 C-12.75856334 12.72057242 -12.75856334 12.72057242 -12.875 9.25 C-12.89304688 8.07953125 -12.91109375 6.9090625 -12.9296875 5.703125 C-12.95289063 4.81109375 -12.97609375 3.9190625 -13 3 C-10.625 2.375 -10.625 2.375 -8 2 C-6 4 -6 4 -5.8046875 6.3828125 C-5.82789062 7.28773438 -5.85109375 8.19265625 -5.875 9.125 C-5.89304687 10.03507813 -5.91109375 10.94515625 -5.9296875 11.8828125 C-5.95289062 12.58148438 -5.97609375 13.28015625 -6 14 C-5.34 14 -4.68 14 -4 14 C-4 11.03 -4 8.06 -4 5 C-3.01 4.67 -2.02 4.34 -1 4 C-0.26676204 1.98491642 -0.26676204 1.98491642 0 0 Z " fill="#FCFCFB" transform="translate(70,180)"/>
<path d="M0 0 C0.66 0.33 1.32 0.66 2 1 C2 1.99 2 2.98 2 4 C16.85 4 31.7 4 47 4 C46.34 5.32 45.68 6.64 45 8 C44.67 8.99 44.34 9.98 44 11 C29.81 11 15.62 11 1 11 C0.67 10.34 0.34 9.68 0 9 C-0.66 8.34 -1.32 7.68 -2 7 C-2 6.01 -2 5.02 -2 4 C-1.34 4 -0.68 4 0 4 C0 2.68 0 1.36 0 0 Z " fill="#682DAA" transform="translate(115,52)"/>
<path d="M0 0 C1.32 0.33 2.64 0.66 4 1 C4.99 10.9 5.98 20.8 7 31 C7.99 29.02 8.98 27.04 10 25 C11.32 25.33 12.64 25.66 14 26 C14.33 27.65 14.66 29.3 15 31 C14.4225 31.020625 13.845 31.04125 13.25 31.0625 C10.35310673 32.26953886 9.32639633 34.02374472 7.8828125 36.74609375 C6.21523113 41.00359133 5.61995742 45.488994 5 50 C4.67 49.34 4.34 48.68 4 48 C3.01 48 2.02 48 1 48 C1.00523682 47.22100342 1.01047363 46.44200684 1.01586914 45.6394043 C1.10458564 30.39027364 1.06117273 15.21645903 0 0 Z " fill="#7541B2" transform="translate(95,57)"/>
<path d="M0 0 C3.96873434 1.32291145 4.29905037 2.91149738 6.1875 6.5625 C6.71730469 7.57441406 7.24710938 8.58632812 7.79296875 9.62890625 C8.19128906 10.41136719 8.58960937 11.19382812 9 12 C9.99 11.34 10.98 10.68 12 10 C12.99 10 13.98 10 15 10 C13.87548273 12.9719385 12.77706209 15.33440687 11 18 C9.1640625 17.78125 9.1640625 17.78125 7 17 C5.5859375 14.96875 5.5859375 14.96875 4.375 12.5 C2.86497402 9.09160458 2.86497402 9.09160458 0 7 C-0.20496094 7.69867188 -0.40992187 8.39734375 -0.62109375 9.1171875 C-0.89050781 10.02726562 -1.15992187 10.93734375 -1.4375 11.875 C-1.83775391 13.23238281 -1.83775391 13.23238281 -2.24609375 14.6171875 C-3 17 -3 17 -4 19 C-4.99 19 -5.98 19 -7 19 C-7.99 16.69 -8.98 14.38 -10 12 C-9.2575 11.855625 -8.515 11.71125 -7.75 11.5625 C-4.00535319 9.43485976 -3.32376081 6.90717421 -1.796875 2.99609375 C-1 1 -1 1 0 0 Z " fill="#6F39AF" transform="translate(117,76)"/>
<path d="M0 0 C3.12522772 -0.05378021 6.2495371 -0.09356575 9.375 -0.125 C10.26445313 -0.14175781 11.15390625 -0.15851563 12.0703125 -0.17578125 C12.92109375 -0.18222656 13.771875 -0.18867188 14.6484375 -0.1953125 C15.82672119 -0.21102295 15.82672119 -0.21102295 17.02880859 -0.22705078 C19 0 19 0 21 2 C21.1953125 4.8203125 21.1953125 4.8203125 21.125 8.125 C21.10695313 9.22070312 21.08890625 10.31640625 21.0703125 11.4453125 C21.04710938 12.28835937 21.02390625 13.13140625 21 14 C20.34 14 19.68 14 19 14 C18.505 9.05 18.505 9.05 18 4 C15.525 3.505 15.525 3.505 13 3 C12.67 6.96 12.34 10.92 12 15 C11.01 15 10.02 15 9 15 C8.67 11.04 8.34 7.08 8 3 C6.35 2.67 4.7 2.34 3 2 C3 6.29 3 10.58 3 15 C2.01 15 1.02 15 0 15 C0 10.05 0 5.1 0 0 Z " fill="#7847B0" transform="translate(45,180)"/>
<path d="M0 0 C0 0.99 0 1.98 0 3 C-4.455 3.495 -4.455 3.495 -9 4 C-8.4799928 7.968242 -8.4799928 7.968242 -6.1875 9.23046875 C-5.465625 9.54628906 -4.74375 9.86210937 -4 10.1875 C-0.03559871 11.96440129 -0.03559871 11.96440129 1 13 C1.57416268 18.28229665 1.57416268 18.28229665 -0.5 20.875 C-4.17090906 22.52690908 -6.98326923 22.25914392 -11 22 C-11.66 21.67 -12.32 21.34 -13 21 C-13 20.01 -13 19.02 -13 18 C-9.7 18 -6.4 18 -3 18 C-3 16.68 -3 15.36 -3 14 C-3.55429687 13.73445312 -4.10859375 13.46890625 -4.6796875 13.1953125 C-5.40414062 12.84210938 -6.12859375 12.48890625 -6.875 12.125 C-7.59429688 11.77695313 -8.31359375 11.42890625 -9.0546875 11.0703125 C-11 10 -11 10 -13 8 C-12.84693397 5.01521245 -12.39802756 3.46171196 -10.4375 1.1875 C-6.8580787 -0.55632063 -3.95820158 -0.19791008 0 0 Z " fill="#784AAF" transform="translate(39,173)"/>
<path d="M0 0 C1.45742463 -0.08096803 2.91612807 -0.13917774 4.375 -0.1875 C5.18710938 -0.22230469 5.99921875 -0.25710937 6.8359375 -0.29296875 C7.55007812 -0.19628906 8.26421875 -0.09960938 9 0 C11.35119399 3.52679099 11.21443452 5.02879485 11.125 9.1875 C11.10695312 10.27417969 11.08890625 11.36085937 11.0703125 12.48046875 C11.03550781 13.72763672 11.03550781 13.72763672 11 15 C9.37536158 15.05395478 7.75021459 15.09277195 6.125 15.125 C5.22007812 15.14820313 4.31515625 15.17140625 3.3828125 15.1953125 C1 15 1 15 -1 13 C-0.8125 10.5 -0.8125 10.5 0 8 C3.22791555 5.8480563 4.28400809 5.79913557 8 6 C7.67 5.01 7.34 4.02 7 3 C4.69 2.67 2.38 2.34 0 2 C0 1.34 0 0.68 0 0 Z " fill="#8860BA" transform="translate(142,180)"/>
<path d="M0 0 C13.53 0 27.06 0 41 0 C41.495 1.485 41.495 1.485 42 3 C28.14 3 14.28 3 0 3 C0 2.01 0 1.02 0 0 Z " fill="#682EAC" transform="translate(27,86)"/>
<path d="M0 0 C1 1 1 1 1.09765625 3.94140625 C1.08605469 5.13636719 1.07445313 6.33132812 1.0625 7.5625 C1.05347656 8.76003906 1.04445313 9.95757812 1.03515625 11.19140625 C1.02355469 12.11824219 1.01195313 13.04507813 1 14 C-0.45635371 14.22174933 -1.91522956 14.42698698 -3.375 14.625 C-4.18710938 14.74101562 -4.99921875 14.85703125 -5.8359375 14.9765625 C-6.55007812 14.98429688 -7.26421875 14.99203125 -8 15 C-10 13 -10 13 -10.125 10.375 C-10.08375 9.59125 -10.0425 8.8075 -10 8 C-6.86501708 6.14223235 -4.62528568 5.79859524 -1 6 C-1.33 5.01 -1.66 4.02 -2 3 C-4.31 2.67 -6.62 2.34 -9 2 C-9 1.34 -9 0.68 -9 0 C-5.90842747 -1.54578627 -3.31526981 -0.60277633 0 0 Z " fill="#784AAF" transform="translate(81,180)"/>
<path d="M0 0 C0.66 0 1.32 0 2 0 C2 0.66 2 1.32 2 2 C4.31 2 6.62 2 9 2 C9.33 3.32 9.66 4.64 10 6 C7.03 6.66 4.06 7.32 1 8 C1.66 10.31 2.32 12.62 3 15 C-0.3 15 -3.6 15 -7 15 C-7 11.37 -7 7.74 -7 4 C-6.67 4 -6.34 4 -6 4 C-6 7.3 -6 10.6 -6 14 C-5.34 14 -4.68 14 -4 14 C-4 11.03 -4 8.06 -4 5 C-3.01 4.67 -2.02 4.34 -1 4 C-0.26676204 1.98491642 -0.26676204 1.98491642 0 0 Z " fill="#F9F8F8" transform="translate(70,180)"/>
<path d="M0 0 C1.051875 -0.02126953 1.051875 -0.02126953 2.125 -0.04296875 C4 0.1875 4 0.1875 6 2.1875 C4.11692557 4.07057443 0.78608313 3.55253069 -1.7734375 3.7109375 C-4.45334205 4.28453111 -5.38523323 4.99530082 -7 7.1875 C-7.38890901 10.75249923 -7.55465764 13.18116677 -5.80078125 16.36328125 C-3.47019311 18.72420242 -2.08180855 18.76766579 1.1875 18.9375 C2.08855469 18.99421875 2.98960937 19.0509375 3.91796875 19.109375 C4.60503906 19.13515625 5.29210937 19.1609375 6 19.1875 C6 19.8475 6 20.5075 6 21.1875 C2.79826746 22.78836627 -0.52577059 22.68667089 -4 22.1875 C-6.8100346 20.39386089 -8.50940468 19.16869065 -10 16.1875 C-10.53118252 11.26753072 -10.75105553 7.41422403 -8.125 3.125 C-5.29111024 0.54115934 -3.74275915 0.03440036 0 0 Z " fill="#7344AC" transform="translate(132,172.8125)"/>
<path d="M0 0 C0.66 0 1.32 0 2 0 C3.12256971 5.60341521 3.32721317 11.1818301 3.5625 16.875 C3.60568359 17.84953125 3.64886719 18.8240625 3.69335938 19.828125 C3.79882274 22.21862802 3.90094175 24.60922444 4 27 C2.02 26.34 0.04 25.68 -2 25 C-2.30221599 16.53795229 -1.14920797 8.36254017 0 0 Z " fill="#F7F4F8" transform="translate(93,54)"/>
<path d="M0 0 C1.41678795 0.00424484 1.41678795 0.00424484 2.86219788 0.00857544 C5.85748349 0.01970566 8.85246211 0.0447969 11.84765625 0.0703125 C13.88736545 0.08035155 15.92707937 0.08947578 17.96679688 0.09765625 C22.94803365 0.11962154 27.92904303 0.15410174 32.91015625 0.1953125 C32.91015625 0.5253125 32.91015625 0.8553125 32.91015625 1.1953125 C31.67861816 1.22036865 30.44708008 1.2454248 29.17822266 1.27124023 C24.61968132 1.36523862 20.06129507 1.46547765 15.50292969 1.56762695 C13.52803163 1.61100453 11.55309538 1.6526775 9.578125 1.69262695 C6.74337235 1.75026123 3.90881247 1.8139752 1.07421875 1.87890625 C-0.25553482 1.90397499 -0.25553482 1.90397499 -1.6121521 1.92955017 C-5.9890953 1.90616461 -5.9890953 1.90616461 -10.08984375 3.1953125 C-8.43984375 4.1853125 -6.78984375 5.1753125 -5.08984375 6.1953125 C-9.15833784 8.90764189 -11.25461159 8.50231137 -16.08984375 8.1953125 C-16.74984375 7.5353125 -17.40984375 6.8753125 -18.08984375 6.1953125 C-17.71484375 4.0703125 -17.71484375 4.0703125 -17.08984375 2.1953125 C-11.27673638 0.19413557 -6.11909488 -0.06983829 0 0 Z " fill="#7C4AB6" transform="translate(37.08984375,98.8046875)"/>
<path d="M0 0 C0.99 0.33 1.98 0.66 3 1 C3 1.66 3 2.32 3 3 C4.65769409 2.98428955 4.65769409 2.98428955 6.34887695 2.96826172 C10.44698856 2.93207593 14.54508603 2.90910471 18.64331055 2.89013672 C20.41742324 2.88007589 22.19151935 2.86642578 23.96557617 2.84912109 C26.51485284 2.82487622 29.06391037 2.81351782 31.61328125 2.8046875 C32.40712723 2.79436493 33.20097321 2.78404236 34.01887512 2.77340698 C37.88223043 2.7726189 39.70839446 2.80559631 43 5 C36.93109825 5.07408977 30.86245903 5.12857359 24.79321289 5.16479492 C22.72806209 5.17989271 20.6629434 5.20037274 18.59790039 5.22631836 C15.63159261 5.26265795 12.66570829 5.2797163 9.69921875 5.29296875 C8.31158577 5.31619453 8.31158577 5.31619453 6.8959198 5.33988953 C6.03525406 5.34011612 5.17458832 5.34034271 4.2878418 5.34057617 C3.15199898 5.35056892 3.15199898 5.35056892 1.99320984 5.36076355 C-0.51103746 4.90750413 -1.39838816 3.92232696 -3 2 C-2.01 2 -1.02 2 0 2 C0 1.34 0 0.68 0 0 Z " fill="#8857BE" transform="translate(72,153)"/>
<path d="M0 0 C0.99 0 1.98 0 3 0 C3 1.65 3 3.3 3 5 C4.32 5 5.64 5 7 5 C7 5.66 7 6.32 7 7 C5.68 7 4.36 7 3 7 C3 10.63 3 14.26 3 18 C4.32 18 5.64 18 7 18 C7 18.66 7 19.32 7 20 C4.625 20.125 4.625 20.125 2 20 C0 18 0 18 -0.1953125 15.3984375 C-0.17210938 14.40070313 -0.14890625 13.40296875 -0.125 12.375 C-0.10695313 11.37210938 -0.08890625 10.36921875 -0.0703125 9.3359375 C-0.04710938 8.56507813 -0.02390625 7.79421875 0 7 C-0.66 7 -1.32 7 -2 7 C-2 6.34 -2 5.68 -2 5 C-1.34 5 -0.68 5 0 5 C0 3.35 0 1.7 0 0 Z " fill="#8C63BB" transform="translate(100,175)"/>
<path d="M0 0 C2.875 -0.1875 2.875 -0.1875 6 0 C8 3 8 3 8 8 C4.7 8 1.4 8 -2 8 C-1.67 8.99 -1.34 9.98 -1 11 C0.87387216 11.80212628 0.87387216 11.80212628 3.0625 12.1875 C3.79597656 12.34605469 4.52945313 12.50460938 5.28515625 12.66796875 C5.85105469 12.77753906 6.41695312 12.88710937 7 13 C7 13.66 7 14.32 7 15 C4.14133991 15.23822167 1.80180916 15.42775712 -1 15 C-3.90799783 12.4555019 -4.90702057 11.04601863 -5.25 7.1875 C-5.1675 6.465625 -5.085 5.74375 -5 5 C-4.34 5 -3.68 5 -3 5 C-3 5.66 -3 6.32 -3 7 C-0.03 7 2.94 7 6 7 C4.19587357 3.73539027 3.16605307 2.11070205 0 0 Z " fill="#7A4DB0" transform="translate(174,180)"/>
<path d="M0 0 C0.99 0.33 1.98 0.66 3 1 C3.36463732 2.74784829 3.7163078 4.49840502 4.0625 6.25 C4.25972656 7.22453125 4.45695312 8.1990625 4.66015625 9.203125 C4.98397535 11.868119 4.85503199 13.48871723 4 16 C3.566875 15.175 3.13375 14.35 2.6875 13.5 C2.130625 12.675 1.57375 11.85 1 11 C0.01 11 -0.98 11 -2 11 C-1.125 3.375 -1.125 3.375 0 0 Z " fill="#7542B2" transform="translate(93,38)"/>
<path d="M0 0 C2.97 0 5.94 0 9 0 C9 0.66 9 1.32 9 2 C7.02 2 5.04 2 3 2 C3 6.29 3 10.58 3 15 C2.01 15 1.02 15 0 15 C0 10.05 0 5.1 0 0 Z " fill="#855CB6" transform="translate(158,180)"/>
<path d="M0 0 C0.33 0 0.66 0 1 0 C1 3.63 1 7.26 1 11 C1.99 10.67 2.98 10.34 4 10 C5.40742022 12.81484045 4.66652164 14.56936113 4.0625 17.625 C3.86785156 18.62789062 3.67320313 19.63078125 3.47265625 20.6640625 C3.23869141 21.82035156 3.23869141 21.82035156 3 23 C2.67 22.34 2.34 21.68 2 21 C1.01 21 0.02 21 -1 21 C-0.67 14.07 -0.34 7.14 0 0 Z " fill="#8253BA" transform="translate(97,84)"/>
<path d="M0 0 C2.91517292 1.07401108 4.77810176 1.77810176 7 4 C7 4.99 7 5.98 7 7 C4.03 7 1.06 7 -2 7 C-2.33 5.68 -2.66 4.36 -3 3 C-1.5625 1.25 -1.5625 1.25 0 0 Z " fill="#946FC0" transform="translate(173,180)"/>
<path d="M0 0 C0.33 0 0.66 0 1 0 C1 5.94 1 11.88 1 18 C1.66 18.33 2.32 18.66 3 19 C2.67 19.66 2.34 20.32 2 21 C1.01 21 0.02 21 -1 21 C-1.33 14.73 -1.66 8.46 -2 2 C-1.34 2 -0.68 2 0 2 C0 1.34 0 0.68 0 0 Z " fill="#682EAB" transform="translate(99,74)"/>
<path d="M0 0 C2.97 0.495 2.97 0.495 6 1 C5.01 1.33 4.02 1.66 3 2 C3 6.29 3 10.58 3 15 C2.01 15 1.02 15 0 15 C0 10.05 0 5.1 0 0 Z " fill="#875EB7" transform="translate(45,180)"/>
<path d="M0 0 C2.97 0 5.94 0 9 0 C8.67 0.66 8.34 1.32 8 2 C6.35 2.33 4.7 2.66 3 3 C2.67 6.96 2.34 10.92 2 15 C1.34 15 0.68 15 0 15 C0 10.05 0 5.1 0 0 Z " fill="#7749B0" transform="translate(88,180)"/>
<path d="M0 0 C2.45234885 0.98093954 3.7809268 1.68703828 5.3125 3.875 C6.1132654 6.35009306 5.86325845 7.58287634 5 10 C4.34 9.67 3.68 9.34 3 9 C3 8.01 3 7.02 3 6 C2.01 6.33 1.02 6.66 0 7 C-1 6 -1 6 -1.125 3.5 C-1 1 -1 1 0 0 Z " fill="#682EAB" transform="translate(92,48)"/>
<path d="M0 0 C2.31 0 4.62 0 7 0 C7.33 1.32 7.66 2.64 8 4 C5.03 4.66 2.06 5.32 -1 6 C-1 5.01 -1 4.02 -1 3 C-0.34 3 0.32 3 1 3 C0.67 2.01 0.34 1.02 0 0 Z " fill="#F5F2F6" transform="translate(72,182)"/>
<path d="M0 0 C2.97 0.495 2.97 0.495 6 1 C5.67 1.99 5.34 2.98 5 4 C5.66 4 6.32 4 7 4 C7 4.66 7 5.32 7 6 C8.32 6.33 9.64 6.66 11 7 C6.07284004 7.46192125 2.49267375 5.8275283 -2 4 C-1.34 2.68 -0.68 1.36 0 0 Z " fill="#F6F5F4" transform="translate(138,173)"/>
<path d="M0 0 C3.3 0 6.6 0 10 0 C8.515 1.485 8.515 1.485 7 3 C7.66 3.66 8.32 4.32 9 5 C3.375 5.25 3.375 5.25 0 3 C0 2.01 0 1.02 0 0 Z " fill="#E5DEEF" transform="translate(172,188)"/>
<path d="M0 0 C0.95465783 2.16967689 1.14401212 3.56328793 0.3984375 5.82421875 C-0.35870385 7.5684743 -1.17609198 9.28627131 -2 11 C-2.66 10.67 -3.32 10.34 -4 10 C-4 9.34 -4 8.68 -4 8 C-5.32 7.34 -6.64 6.68 -8 6 C-7.38125 5.9175 -6.7625 5.835 -6.125 5.75 C-3.81562433 5.18741541 -3.81562433 5.18741541 -2.75 2.9375 C-2.5025 2.298125 -2.255 1.65875 -2 1 C-1.67 1.33 -1.34 1.66 -1 2 C-0.67 1.34 -0.34 0.68 0 0 Z " fill="#EFE9F2" transform="translate(78,57)"/>
<path d="M0 0 C0.66 0 1.32 0 2 0 C3.10228696 4.40914783 3.07654536 8.48382401 3 13 C2.01 13 1.02 13 0 13 C0 8.71 0 4.42 0 0 Z " fill="#8960B8" transform="translate(54,182)"/>
<path d="M0 0 C0.33 0.66 0.66 1.32 1 2 C1.99 2.33 2.98 2.66 4 3 C3.67 5.64 3.34 8.28 3 11 C2.34 11 1.68 11 1 11 C0.63890458 9.35567294 0.28629924 7.7094792 -0.0625 6.0625 C-0.25972656 5.14597656 -0.45695312 4.22945313 -0.66015625 3.28515625 C-0.77230469 2.53105469 -0.88445312 1.77695313 -1 1 C-0.67 0.67 -0.34 0.34 0 0 Z " fill="#E7DEF0" transform="translate(92,103)"/>
<path d="M0 0 C0.33 0 0.66 0 1 0 C0.125 6.75 0.125 6.75 -1 9 C-1.99 9 -2.98 9 -4 9 C-4.33 7.35 -4.66 5.7 -5 4 C-4.34 4 -3.68 4 -3 4 C-3 3.34 -3 2.68 -3 2 C-2.01 2 -1.02 2 0 2 C0 1.34 0 0.68 0 0 Z " fill="#6B35AA" transform="translate(114,86)"/>
<path d="M0 0 C0.66 0.33 1.32 0.66 2 1 C0.68 4.3 -0.64 7.6 -2 11 C-2.99 11 -3.98 11 -5 11 C-4.01 8.03 -3.02 5.06 -2 2 C-1.34 2 -0.68 2 0 2 C0 1.34 0 0.68 0 0 Z " fill="#F4F1F6" transform="translate(71,74)"/>
<path d="M0 0 C1.2065625 0.0309375 1.2065625 0.0309375 2.4375 0.0625 C2.1075 1.7125 1.7775 3.3625 1.4375 5.0625 C-0.2125 5.0625 -1.8625 5.0625 -3.5625 5.0625 C-3.5625 0.08689024 -3.5625 0.08689024 0 0 Z " fill="#EBE4F2" transform="translate(77.5625,187.9375)"/>
<path d="M0 0 C0.99 0 1.98 0 3 0 C3 0.66 3 1.32 3 2 C3.66 2 4.32 2 5 2 C5 2.99 5 3.98 5 5 C3.02 5.33 1.04 5.66 -1 6 C-1 6.66 -1 7.32 -1 8 C-1.66 7.67 -2.32 7.34 -3 7 C-2.01 4.69 -1.02 2.38 0 0 Z " fill="#F4F1F5" transform="translate(74,79)"/>
<path d="M0 0 C1.984375 0.98828125 1.984375 0.98828125 4 3 C4.29561076 5.87038052 4.37943016 8.33754745 4.25 11.1875 C4.23195313 11.93708984 4.21390625 12.68667969 4.1953125 13.45898438 C4.14824109 15.3065371 4.07649766 17.15343159 4 19 C3.01 18.67 2.02 18.34 1 18 C1.66 18 2.32 18 3 18 C2.91291962 15.89505699 2.80474307 13.79097858 2.6875 11.6875 C2.62949219 10.51574219 2.57148437 9.34398437 2.51171875 8.13671875 C1.98395232 4.9016314 1.57619276 3.91315119 -1 2 C-0.67 1.34 -0.34 0.68 0 0 Z " fill="#E8DFEF" transform="translate(79,176)"/>
<path d="M0 0 C2.97 0.33 5.94 0.66 9 1 C9.33 1.99 9.66 2.98 10 4 C2.25 4.125 2.25 4.125 0 3 C0 2.01 0 1.02 0 0 Z " fill="#865FB8" transform="translate(26,191)"/>
<path d="M0 0 C1.051875 -0.02126953 1.051875 -0.02126953 2.125 -0.04296875 C4 0.1875 4 0.1875 6 2.1875 C4.12356239 4.06393761 1.50194299 3.36734987 -0.9921875 3.41796875 C-3 3.1875 -3 3.1875 -6 1.1875 C-3.77109005 0.07304502 -2.46944894 0.02269714 0 0 Z " fill="#8D66BC" transform="translate(132,172.8125)"/>
<path d="M0 0 C0.33 0 0.66 0 1 0 C1 3.3 1 6.6 1 10 C2.32 9.34 3.64 8.68 5 8 C5.33 8.99 5.66 9.98 6 11 C4.02 11 2.04 11 0 11 C0 7.37 0 3.74 0 0 Z M6 8 C7.98 8.99 7.98 8.99 10 10 C9.01 10.33 8.02 10.66 7 11 C6.67 10.01 6.34 9.02 6 8 Z " fill="#DDCFE9" transform="translate(63,184)"/>
<path d="M0 0 C1.65 0 3.3 0 5 0 C4.67 1.65 4.34 3.3 4 5 C2.35 4.67 0.7 4.34 -1 4 C-0.67 2.68 -0.34 1.36 0 0 Z " fill="#F3EFF6" transform="translate(145,188)"/>
<path d="M0 0 C0.99 0.99 1.98 1.98 3 3 C2.34 4.65 1.68 6.3 1 8 C-0.65 7.67 -2.3 7.34 -4 7 C-2.68 4.69 -1.36 2.38 0 0 Z " fill="#F2EBF4" transform="translate(106,88)"/>
<path d="M0 0 C1.32 0 2.64 0 4 0 C3.67 3.63 3.34 7.26 3 11 C2.34 10.67 1.68 10.34 1 10 C0.5859375 7.71484375 0.5859375 7.71484375 0.375 4.9375 C0.30023438 4.01839844 0.22546875 3.09929687 0.1484375 2.15234375 C0.09945312 1.44207031 0.05046875 0.73179688 0 0 Z " fill="#F2EEF7" transform="translate(84,71)"/>
<path d="M0 0 C0 1.98 0 3.96 0 6 C-0.33 5.01 -0.66 4.02 -1 3 C-1.928125 3.309375 -2.85625 3.61875 -3.8125 3.9375 C-5.875 4.625 -7.9375 5.3125 -10 6 C-9.4375 4.125 -9.4375 4.125 -8 2 C-2.3 0 -2.3 0 0 0 Z " fill="#7E50B2" transform="translate(151,185)"/>
<path d="M0 0 C2.64 0 5.28 0 8 0 C8 0.99 8 1.98 8 3 C5.03 3 2.06 3 -1 3 C-0.67 2.01 -0.34 1.02 0 0 Z " fill="#855BB8" transform="translate(31,173)"/>
<path d="M0 0 C1.9453125 -0.29296875 1.9453125 -0.29296875 4.125 -0.1875 C5.40375 -0.125625 6.6825 -0.06375 8 0 C8 0.66 8 1.32 8 2 C4.78548731 3.60725635 1.56387464 3.05748185 -2 3 C-1.34 2.01 -0.68 1.02 0 0 Z " fill="#8A62BA" transform="translate(130,192)"/>
<path d="M0 0 C0.66 0 1.32 0 2 0 C2.33 3.3 2.66 6.6 3 10 C2.01 10 1.02 10 0 10 C-1.2380014 6.42355152 -0.74926071 3.66305234 0 0 Z " fill="#E1D6EF" transform="translate(93,54)"/>
<path d="M0 0 C1.65 0.33 3.3 0.66 5 1 C5 1.99 5 2.98 5 4 C2.69 4 0.38 4 -2 4 C-1.34 2.68 -0.68 1.36 0 0 Z " fill="#FCFAF9" transform="translate(174,182)"/>
<path d="M0 0 C0.33 0 0.66 0 1 0 C1.125 7.75 1.125 7.75 0 10 C-0.99 10 -1.98 10 -3 10 C-3 7.36 -3 4.72 -3 2 C-2.01 3.485 -2.01 3.485 -1 5 C-0.67 3.35 -0.34 1.7 0 0 Z " fill="#885BBE" transform="translate(99,66)"/>
<path d="M0 0 C0.99 0.33 1.98 0.66 3 1 C3.33 2.98 3.66 4.96 4 7 C3.34 7 2.68 7 2 7 C1.34 7.66 0.68 8.32 0 9 C-1.125 2.25 -1.125 2.25 0 0 Z " fill="#7D4CB6" transform="translate(81,70)"/>
<path d="M0 0 C0.33 0 0.66 0 1 0 C1.33 3.3 1.66 6.6 2 10 C3.32 10 4.64 10 6 10 C6 10.66 6 11.32 6 12 C4.33388095 12.042721 2.66617115 12.04063832 1 12 C0 11 0 11 -0.09765625 8.49609375 C-0.08605469 7.48675781 -0.07445313 6.47742188 -0.0625 5.4375 C-0.05347656 4.42558594 -0.04445313 3.41367188 -0.03515625 2.37109375 C-0.02355469 1.58863281 -0.01195313 0.80617187 0 0 Z " fill="#7446AB" transform="translate(101,183)"/>
<path d="M0 0 C1.98 1.65 3.96 3.3 6 5 C5.67 5.66 5.34 6.32 5 7 C3.1875 6.8125 3.1875 6.8125 1 6 C-0.75 3.4375 -0.75 3.4375 -2 1 C-1.34 0.67 -0.68 0.34 0 0 Z " fill="#7B4EAE" transform="translate(124,187)"/>
<path d="M0 0 C2.97 0 5.94 0 9 0 C9.33 0.99 9.66 1.98 10 3 C6.7 2.67 3.4 2.34 0 2 C0 1.34 0 0.68 0 0 Z " fill="#8053B3" transform="translate(142,180)"/>
<path d="M0 0 C0.66 0 1.32 0 2 0 C2.66 2.31 3.32 4.62 4 7 C3.34 7 2.68 7 2 7 C1.67 6.34 1.34 5.68 1 5 C0.01 5 -0.98 5 -2 5 C-1.34 3.35 -0.68 1.7 0 0 Z " fill="#723FB1" transform="translate(79,60)"/>
<path d="M0 0 C-3.4352048 2.29013653 -4.985331 2.17842973 -9 2 C-9 1.34 -9 0.68 -9 0 C-5.93109813 -1.53445094 -3.29905734 -0.54984289 0 0 Z " fill="#936DC0" transform="translate(81,180)"/>
<path d="M0 0 C2.125 0.9375 2.125 0.9375 4 2 C3.34 3.32 2.68 4.64 2 6 C1.34 6 0.68 6 0 6 C-0.66 4.35 -1.32 2.7 -2 1 C-1.34 0.67 -0.68 0.34 0 0 Z " fill="#F2EDF4" transform="translate(110,81)"/>
<path d="M0 0 C2.625 0.375 2.625 0.375 5 1 C4.54625 1.433125 4.0925 1.86625 3.625 2.3125 C1.79975666 4.10798342 1.79975666 4.10798342 0 7 C0 5.68 0 4.36 0 3 C-0.66 2.67 -1.32 2.34 -2 2 C-1.34 1.34 -0.68 0.68 0 0 Z " fill="#F3EDF7" transform="translate(114,74)"/>
<path d="M0 0 C-0.99 1.485 -0.99 1.485 -2 3 C-4.3431213 2.74438677 -6.67843403 2.40729228 -9 2 C-9.33 1.34 -9.66 0.68 -10 0 C-3.375 -1.125 -3.375 -1.125 0 0 Z " fill="#F6F4F6" transform="translate(171,182)"/>
<path d="M0 0 C0.99 1.32 1.98 2.64 3 4 C2.01 5.32 1.02 6.64 0 8 C-1.125 5.6875 -1.125 5.6875 -2 3 C-1.34 2.01 -0.68 1.02 0 0 Z " fill="#7847B6" transform="translate(121,80)"/>
<path d="M0 0 C0.33 1.32 0.66 2.64 1 4 C-0.32 3.67 -1.64 3.34 -3 3 C-3.33 3.66 -3.66 4.32 -4 5 C-4.66 4.67 -5.32 4.34 -6 4 C-6 3.01 -6 2.02 -6 1 C-4.02 0.67 -2.04 0.34 0 0 Z " fill="#662EAA" transform="translate(89,81)"/>
<path d="M0 0 C0.33 0.66 0.66 1.32 1 2 C2.32 2 3.64 2 5 2 C5 2.99 5 3.98 5 5 C2.69 4.67 0.38 4.34 -2 4 C-1.34 2.68 -0.68 1.36 0 0 Z " fill="#EAE5F2" transform="translate(52,176)"/>
<path d="M0 0 C0.66 0 1.32 0 2 0 C2 0.66 2 1.32 2 2 C2.66 2 3.32 2 4 2 C4 2.66 4 3.32 4 4 C5.32 4.33 6.64 4.66 8 5 C4.95613276 5.08226668 2.92824652 4.97608217 0 4 C-0.33 3.01 -0.66 2.02 -1 1 C-0.67 0.67 -0.34 0.34 0 0 Z " fill="#EBE5F2" transform="translate(141,175)"/>
<path d="M0 0 C1.9375 0.3125 1.9375 0.3125 4 1 C4.33 1.99 4.66 2.98 5 4 C4.01 4.33 3.02 4.66 2 5 C2 4.34 2 3.68 2 3 C1.01 2.67 0.02 2.34 -1 2 C-0.67 1.34 -0.34 0.68 0 0 Z " fill="#713AB2" transform="translate(105,82)"/>
</svg>
